<svg xmlns="http://www.w3.org/2000/svg" xmlns:xlink="http://www.w3.org/1999/xlink" viewBox="0 0 452.84 376.68"><defs><style>.cls-1{fill:none;}.cls-2{clip-path:url(#clip-path);}.cls-3{fill:#fff;}</style><clipPath id="clip-path" transform="translate(0 -2.64)"><ellipse class="cls-1" cx="188.42" cy="190.58" rx="188.42" ry="190.58"/></clipPath></defs><title>Recurso 5</title><g id="Capa_2" data-name="Capa 2"><g id="Logo"><circle cx="188.34" cy="188.34" r="188.34"/><g class="cls-2"><path class="cls-3" d="M342.57,301.65c-52.52,4-102-15.78-128.31-27,0,0-35.57-16.11-59.84-26.31C144.78,280,111.87,308.23,58.68,301c0,0-57.51-6.25-52.19-51.31,0,0,1.67-16.12,13.3-28.95C27.44,212.52,40.4,205.28,58,205c21.27-.33,44.54,6.57,72.8,17.76-.34-25.33-29.59-41.45-29.59-41.45C48.71,153,77,111.55,77,111.55,117.19,46.75,179,42.48,179,42.48c23.93-2.63,34.24,12.17,34.24,12.17,5,6.57,6,18.09-.33,30.58-9.64,19.08-50.53,53.62-39.9,70.06.34,1-.33,1.65-1.32,1.65-9.31-2.64-35.91-11.52-19.28-36.84,14.62-22.37,61.16-46.71,45.2-59.86,0,0-34.9-4.28-74.46,39.8-32.91,36.5-30.91,52.62-19.94,61.17,0,0,7.64,5.92,16.62,12.17,14,9.87,38.89,30.92,37.23,60.52C177,241.46,200.3,249,218.91,253.63c55.18,15.46,129.64,32.24,157.9-9.53a1.56,1.56,0,0,1,2.66,0C386.12,253.63,412.05,296.39,342.57,301.65Zm-215.08-63.8C111.87,232.91,92.92,227.65,66,228c-27.59.33-32.91,26.64-32.91,26.64-6,30.59,26.26,32.89,26.26,32.89C101.9,288.83,122.17,249.69,127.49,237.85Z" transform="translate(0 -2.64)"/><path class="cls-3" d="M446.64,287.42c-.23.6-1.25.57-1.65,0-15.05-21.38-50.85-17.29-81.82-9.48,0,0-47.56,14.39-77.17,1-6.5-2.77-10.72-6.27-16.44-15.41,0,0-22.44-37.36-36.75-39.32-8.56,13.77-14.45,27.62-11.69,40.08a1,1,0,0,1-.85,1.18c-4.7-.52-21.78-6.75-13.79-30.54,8.43-24.77,48.19-55.55,47.8-80.55a1.52,1.52,0,0,1,1.88-1.35c5.32.53,20,3.31,16.06,14-4.18,11.09-17.49,26.35-29.61,42.83,11.33-1.51,28.08-6.88,40.21-24,18.08-25.33,3.26-39.3,3.26-39.3-6.58-7.56-17.39-10-29.93-9.16-25.9,1.94-43.09,24.3-43.09,24.3-13,18.06-11.67,31.29-10.76,35.91a1,1,0,0,1-1.26,1.17c-27.45-9.7-6.7-43.35-6.7-43.35,25-40.15,71.35-30,71.35-30s18.61,2.27,30,15.36c7.77,9,13.2,21.52,9.78,35-7.32,29.6-33.83,39.53-54.22,42.41,8.74,3.42,19,13.27,26.11,38.45,2.67,7.66,6.91,10.57,12,12.5,24.37,9.81,65.55-4.13,65.55-4.13,18-5.54,42-14.33,68.64-12.45C466.32,255.53,450.89,281.53,446.64,287.42Z" transform="translate(0 -2.64)"/></g><g class="cls-2"><path class="cls-3" d="M347.71,304c-53.59,4-104.14-16.11-130.94-27.52,0,0-36.29-16.45-61.06-26.85-9.83,32.22-43.42,61.08-97.69,53.7,0,0-58.68-6.38-53.26-52.36,0,0,1.7-16.45,13.57-29.54,7.8-8.39,21-15.77,39-16.11,21.71-.33,45.46,6.72,74.29,18.13-.34-25.85-30.19-42.29-30.19-42.29C47.84,152.27,76.68,110,76.68,110c41-66.11,104.14-70.48,104.14-70.48,24.42-2.68,34.94,12.42,34.94,12.42,5.08,6.71,6.1,18.46-.34,31.21-9.84,19.47-51.56,54.71-40.71,71.49.34,1-.34,1.68-1.36,1.68-9.49-2.68-36.63-11.75-19.67-37.59,14.93-22.82,62.42-47.66,46.13-61.08,0,0-35.61-4.37-76,40.61-33.58,37.25-31.55,53.7-20.35,62.42,0,0,7.8,6.05,17,12.42,14.24,10.07,39.68,31.55,38,61.76,20.35,7.72,44.1,15.44,63.09,20.14,56.31,15.77,132.3,32.89,161.13-9.74a1.61,1.61,0,0,1,2.72,0C392.15,255,418.61,298.61,347.71,304ZM128.24,238.87c-16-5-35.28-10.41-62.76-10.07C37.33,229.13,31.9,256,31.9,256c-6.11,31.22,26.8,33.57,26.8,33.57C102.12,290.89,122.81,251,128.24,238.87Z" transform="translate(0 -2.64)"/></g></g></g></svg>