<svg width="208" height="1036" viewBox="0 0 208 1036" fill="none" xmlns="http://www.w3.org/2000/svg">
<path d="M150.294 923.408C143.075 923.422 137.455 926.011 133.434 931.175C129.412 936.245 125.258 945.207 120.97 958.059C116.682 970.911 112.531 981.419 108.515 989.583C95.5349 1016.14 77.6542 1029.44 54.873 1029.48C43.5293 1029.5 33.5386 1026.24 24.901 1019.7C16.1694 1013.06 9.40139 1003.7 4.59687 991.611C-0.301412 979.526 -2.76508 965.937 -2.79415 950.844C-2.82249 936.125 -0.222853 922.948 5.00475 911.313C10.2322 899.584 17.7147 890.476 27.4522 883.988C37.096 877.501 48.1522 874.245 60.6209 874.221L60.7157 923.44C52.372 923.456 45.9082 926.047 41.3244 931.212C36.7404 936.283 34.4568 943.178 34.4736 951.897C34.4905 960.709 36.4727 967.69 40.4202 972.839C44.2737 977.894 49.2004 980.416 55.2004 980.404C60.4504 980.394 65.2262 977.572 69.5279 971.939C73.7358 966.306 78.123 956.407 82.6895 942.242C87.1622 928.077 92.0148 916.442 97.2473 907.339C109.955 885.189 127.511 874.093 149.918 874.05C167.824 874.015 181.899 880.738 192.144 894.218C202.389 907.699 207.534 926.204 207.579 949.736C207.611 966.329 204.687 981.382 198.807 994.893C192.832 1008.31 184.696 1018.45 174.396 1025.32C164.003 1032.09 152.057 1035.48 138.557 1035.51L138.461 986.009C149.43 985.988 157.534 983.16 162.773 977.525C167.918 971.796 170.479 962.557 170.454 949.807C170.438 941.651 168.692 935.232 165.214 930.551C161.642 925.777 156.669 923.396 150.294 923.408ZM117.576 729.015L117.725 806.64L166.522 806.546L166.346 714.858L204.314 714.785L204.586 855.832L-0.163826 856.226L-0.435953 714.898L37.6734 714.825L37.8504 806.793L81.0222 806.71L80.8728 729.085L117.576 729.015ZM204.289 701.876L-0.460268 702.27L-0.601882 628.723C-0.652607 602.38 4.13697 582.355 13.7668 568.649C23.3965 554.849 37.3989 547.931 55.7738 547.896C66.3676 547.875 75.4191 550.296 82.9285 555.156C90.4379 560.017 95.9829 567.178 99.5636 576.64C102.356 565.947 107.59 557.734 115.266 552C122.943 546.266 132.312 543.389 143.375 543.368C163.437 543.329 178.543 549.675 188.693 562.406C198.748 575.042 203.894 593.829 204.129 618.767L204.289 701.876ZM117.148 652.684L166.226 652.59L166.163 620.246C166.146 611.34 164.117 604.5 160.077 599.726C155.943 594.953 150.173 592.574 142.766 592.588C125.704 592.621 117.142 601.122 117.081 618.09L117.148 652.684ZM84.8039 652.746L84.7544 627.012C84.6398 616.231 82.6563 608.547 78.8037 603.961C74.9511 599.375 69.2748 597.089 61.7748 597.103C53.1499 597.12 46.9672 599.616 43.2267 604.592C39.3926 609.568 37.4861 617.587 37.5074 628.65L37.554 652.837L84.8039 652.746ZM165.471 406.947L165.602 474.587L203.874 486.326L203.976 539.06L-0.918361 464.361L-1.00772 417.955L203.596 341.905L203.698 394.92L165.471 406.947ZM127.47 462.848L127.385 418.833L56.4119 441.048L127.47 462.848ZM131.154 258.119L131.205 284.838L203.486 284.698L203.581 334.058L-1.1685 334.452L-1.32365 253.874C-1.37041 229.593 3.98365 210.598 14.7385 196.89C25.4934 183.182 40.7146 176.309 60.402 176.271C74.652 176.243 86.4701 179.127 95.8563 184.921C105.242 190.622 112.853 199.607 118.689 211.877L201.154 168.968L203.263 168.964L203.365 221.839L131.154 258.119ZM93.0957 284.911L93.0355 253.692C93.0175 244.317 90.5665 237.291 85.6824 232.613C80.7045 227.841 73.8093 225.464 64.9968 225.481C56.1843 225.498 49.2983 227.901 44.3388 232.692C39.2855 237.483 36.7678 244.519 36.7857 253.801L36.8458 285.019L93.0957 284.911ZM165.158 98.05L164.969 0.175189L202.938 0.10208L203.245 159.571L177.23 159.621L36.4169 62.2978L36.6059 160.454L-1.50339 160.527L-1.80964 1.4807L23.5028 1.43196L165.158 98.05Z" fill="url(#paint0_linear)"/>
<defs>
<linearGradient id="paint0_linear" x1="89.5293" y1="9.4688" x2="89.3107" y2="1073.47" gradientUnits="userSpaceOnUse">
<stop stop-color="#DBDBDB"/>
<stop offset="1" stop-color="#F3F3F3" stop-opacity="0.91"/>
</linearGradient>
</defs>
</svg>
