<svg width="1442" height="1035" viewBox="0 0 1442 1035" fill="none" xmlns="http://www.w3.org/2000/svg">
<path fill-rule="evenodd" clip-rule="evenodd" d="M0 0.5L591 28.5C745.927 41.8558 850.61 70.3195 945.372 96.0854C1010.25 113.727 1070.48 130.103 1139 139.5C1349.74 168.402 1442 266.99 1442 334.028V947.353C1429.6 941.745 1414.55 937.176 1396 934.189C1340.88 925.314 1253.94 936.672 1171.98 947.38C1106.6 955.922 1044.38 964.05 1004 961.166C975.288 959.115 946.309 953.621 917.303 948.122C880.581 941.159 843.816 934.189 807.5 934.189C778.848 934.189 712.121 942.086 643.537 950.202C591.029 956.416 537.432 962.759 499 965.786C421.477 971.891 314.727 961.08 214.551 950.934C200.197 949.48 185.978 948.04 172 946.666C103.076 939.888 38.04 943.388 0 954.293V0.5ZM0 1034.67V1035L38.668 1034.67H0Z" fill="url(#paint0_linear)"/>
<defs>
<linearGradient id="paint0_linear" x1="-2.9398e-05" y1="1113" x2="1422.02" y2="-42.6612" gradientUnits="userSpaceOnUse">
<stop offset="0.260417" stop-color="#8637C5" stop-opacity="0.83"/>
<stop offset="0.880208" stop-color="#00B7F1" stop-opacity="0.89"/>
</linearGradient>
</defs>
</svg>
